<svg xmlns="http://www.w3.org/2000/svg" width="190" height="46" viewBox="0 0 190 46"><path fill-rule="evenodd" clip-rule="evenodd" fill="#24579C" d="M65.515 6.902c-.08.68-.12 1.198-.2 1.597-.04.4-.08.64-.08.718 0 1.08.24 2.037.76 2.875.518.84 1.957 2.597 4.312 5.272 2.356 2.676 4.233 5.032 5.63 7.11 1.398 2.035 2.078 4.552 2.078 7.547 0 1.798-.32 3.515-1 5.19-.68 1.72-1.677 3.196-2.955 4.474-1.318 1.278-2.915 2.237-4.792 2.796-1.876.56-3.954.88-6.23.88H52.376v-9.227h9.385c1.52 0 2.756-.36 3.794-.998 1-.68 1.518-1.758 1.518-3.155 0-.8-.2-1.598-.6-2.396-.4-.8-.918-1.597-1.596-2.436l-4.753-5.59c-1.877-2.157-3.274-4.075-4.313-5.792-.998-1.678-1.517-3.515-1.517-5.47 0-.6.04-1.24.16-1.96.12-.678.2-1.158.24-1.437h10.822v.002zm58.347 0L108.007 46l-12.06-28.354 6.59-11.262 5.47 15.895 4.953-15.376h10.902v-.002zm-36.142 0H76.298L93.03 46l6.272-10.623L87.72 6.902zm56.91 0h-11.342l10.383 29.233h-9.862l2.715-10.743-5.432-13.818L120.55 45.36h36.143L144.63 6.903zm14.178 0h16.613c2.157 0 4.073.2 5.75.56 1.638.36 3.116 1.118 4.435 2.235 1.277 1.158 2.195 2.556 2.715 4.234.52 1.638.76 3.555.76 5.672v25.76h-10.623V20.12c0-1.518-.28-2.556-.918-3.116-.6-.6-1.68-.878-3.196-.878h-4.992V45.36H158.81V6.903zM40.833 18.008c-4.48 7.495-11.486 13.4-16.862 16.497-5.54 3.992-14.215 6.19-17.147 3.218-2.974-3.014-3.26-7.088-.45-11.894 2.445-4.197 3.015-4.237 5.623-9.45.855-5.46-6.273-.98-6.843 1.75L1.73 19.963C3.158 9.536 11.548 1.308 21.61 1.308c9.124 0 17.963 7.698 19.225 16.7zM1.08 23.14c0 11.487 8.35 22.322 20.528 22.322 11.323 0 20.57-10.02 20.57-22.322 0-12.3-9.247-22.32-20.57-22.32S1.078 10.84 1.078 23.14zm35.15-9.775c-3.95 4.155-9.246 7.74-13.156 9.735-1.71.733-5.62 3.34-6.395 1.02-.368-2.73 1.628-3.79 2.728-4.4-1.466.082-2.607-.04-4.562 1.914-4.93 4.115-5.703 13.523 2.85 8.065 6.886-3.993 14.625-10.55 18.534-16.335z"/></svg>